<?xml version="1.0" ?><!DOCTYPE svg  PUBLIC '-//W3C//DTD SVG 1.1//EN'  'http://www.w3.org/Graphics/SVG/1.1/DTD/svg11.dtd'><svg height="64px" id="ICONS" style="enable-background:new 0 0 64 64;" version="1.1" viewBox="0 0 64 64" width="64px" xml:space="preserve" xmlns="http://www.w3.org/2000/svg" xmlns:xlink="http://www.w3.org/1999/xlink"><g><path d="   M17.91,26.84C20.01,21.1,25.53,17,32,17s11.99,4.1,14.09,9.84" style="fill:none;stroke:#FF6D00;stroke-width:2;stroke-linecap:round;stroke-linejoin:round;stroke-miterlimit:10;"/><line style="fill:none;stroke:#FF6D00;stroke-width:2;stroke-linecap:round;stroke-linejoin:round;stroke-miterlimit:10;" x1="32" x2="32" y1="17" y2="5"/><line style="fill:none;stroke:#FF6D00;stroke-width:2;stroke-linecap:round;stroke-linejoin:round;stroke-miterlimit:10;" x1="27" x2="37" y1="10" y2="10"/><line style="fill:none;stroke:#FF6D00;stroke-width:2;stroke-linecap:round;stroke-linejoin:round;stroke-miterlimit:10;" x1="9" x2="55" y1="59" y2="59"/><line style="fill:none;stroke:#FF6D00;stroke-width:2;stroke-linecap:round;stroke-linejoin:round;stroke-miterlimit:10;" x1="46.09" x2="41.57" y1="26.84" y2="53.41"/><line style="fill:none;stroke:#FF6D00;stroke-width:2;stroke-linecap:round;stroke-linejoin:round;stroke-miterlimit:10;" x1="21.93" x2="17.91" y1="51.05" y2="26.84"/><g><path d="M23.777,35.039v-6.204c0-0.124,0.044-0.231,0.131-0.322c0.088-0.091,0.2-0.136,0.337-0.136h2.019    c1.6,0,2.399,0.696,2.399,2.087c0,1.014-0.394,1.674-1.18,1.98l1.19,2.156c0.033,0.045,0.049,0.104,0.049,0.176    c0,0.188-0.103,0.367-0.307,0.536c-0.205,0.169-0.421,0.254-0.649,0.254s-0.39-0.094-0.487-0.283l-1.336-2.595h-0.644v2.351    c0,0.15-0.075,0.265-0.224,0.346c-0.15,0.082-0.329,0.122-0.537,0.122s-0.387-0.041-0.537-0.122    C23.852,35.304,23.777,35.189,23.777,35.039z M25.298,31.518h0.966c0.286,0,0.504-0.07,0.653-0.209    c0.15-0.14,0.225-0.372,0.225-0.698c0-0.325-0.075-0.557-0.225-0.697c-0.149-0.14-0.367-0.209-0.653-0.209h-0.966V31.518z" style="fill:#FF6D00;"/><path d="M29.171,34.815c0-0.208,0.073-0.385,0.218-0.532c0.145-0.146,0.326-0.22,0.543-0.22    c0.204,0,0.38,0.075,0.529,0.225c0.148,0.149,0.222,0.325,0.222,0.527s-0.074,0.377-0.222,0.526    c-0.148,0.15-0.325,0.225-0.529,0.225c-0.211,0-0.391-0.075-0.539-0.225C29.245,35.192,29.171,35.017,29.171,34.815z" style="fill:#FF6D00;"/><path d="M31.415,35.039v-6.204c0-0.15,0.075-0.264,0.224-0.342c0.149-0.078,0.329-0.117,0.537-0.117    s0.387,0.039,0.537,0.117c0.149,0.078,0.224,0.192,0.224,0.342v6.204c0,0.15-0.075,0.265-0.224,0.346    c-0.15,0.082-0.329,0.122-0.537,0.122s-0.387-0.041-0.537-0.122C31.489,35.304,31.415,35.189,31.415,35.039z" style="fill:#FF6D00;"/><path d="M33.687,34.815c0-0.208,0.073-0.385,0.218-0.532c0.145-0.146,0.326-0.22,0.543-0.22    c0.204,0,0.38,0.075,0.529,0.225c0.148,0.149,0.222,0.325,0.222,0.527s-0.074,0.377-0.222,0.526    c-0.148,0.15-0.325,0.225-0.529,0.225c-0.211,0-0.391-0.075-0.539-0.225C33.761,35.192,33.687,35.017,33.687,34.815z" style="fill:#FF6D00;"/><path d="M35.931,35.039v-6.204c0-0.124,0.052-0.231,0.156-0.322c0.104-0.091,0.241-0.136,0.41-0.136h2.02    c0.696,0,1.253,0.18,1.673,0.541c0.419,0.361,0.629,0.929,0.629,1.702v0.049c0,0.774-0.219,1.345-0.658,1.712    c-0.439,0.368-1.02,0.551-1.741,0.551h-0.966v2.107c0,0.15-0.075,0.265-0.224,0.346c-0.15,0.082-0.329,0.122-0.537,0.122    s-0.387-0.041-0.537-0.122C36.005,35.304,35.931,35.189,35.931,35.039z M37.452,31.762h0.966c0.585,0,0.878-0.325,0.878-0.976    v-0.107c0-0.65-0.292-0.975-0.878-0.975h-0.966V31.762z" style="fill:#FF6D00;"/><path d="M40.476,34.815c0-0.208,0.073-0.385,0.218-0.532c0.145-0.146,0.326-0.22,0.543-0.22    c0.204,0,0.38,0.075,0.529,0.225c0.148,0.149,0.222,0.325,0.222,0.527s-0.074,0.377-0.222,0.526    c-0.148,0.15-0.325,0.225-0.529,0.225c-0.211,0-0.391-0.075-0.539-0.225C40.55,35.192,40.476,35.017,40.476,34.815z" style="fill:#FF6D00;"/></g><polyline points="   40.625,59 37.875,49.875 43.357,55.125 48,47.013 49,54 54.666,47.013 52,59  " style="fill:none;stroke:#FF6D00;stroke-width:2;stroke-linecap:round;stroke-linejoin:round;stroke-miterlimit:10;"/><polyline points="   23.875,58.997 25,49 19,53 13,44 14,54 9.501,52.504 12,59  " style="fill:none;stroke:#FF6D00;stroke-width:2;stroke-linecap:round;stroke-linejoin:round;stroke-miterlimit:10;"/></g></svg>